<?xml version="1.0" standalone="no"?><!DOCTYPE svg PUBLIC "-//W3C//DTD SVG 1.1//EN" "http://www.w3.org/Graphics/SVG/1.1/DTD/svg11.dtd"><svg t="1569400344864" class="icon" viewBox="0 0 1024 1024" version="1.1" xmlns="http://www.w3.org/2000/svg" p-id="2468" xmlns:xlink="http://www.w3.org/1999/xlink" width="200" height="200"><defs><style type="text/css"></style></defs><path d="M885.3 106.4H138.9c-41.2 0-74.6 33.5-74.6 74.6v736.5l194-126.9h627.1c41.2 0 74.6-33.5 74.6-74.6V181c0-41.1-33.5-74.6-74.7-74.6z m24.9 609.7c0 13.7-11.2 24.9-24.9 24.9H243.4L114 825.6V181.1c0-13.7 11.2-24.9 24.9-24.9h746.5c13.7 0 24.9 11.2 24.9 24.9v535z" fill="#24BC77" p-id="2469"></path><path d="M228.9 351.5h566.4v52.7H228.9zM228.9 524.9h395.2v52.7H228.9z" fill="#24BC77" p-id="2470"></path></svg>